<svg xmlns="http://www.w3.org/2000/svg" xmlns:xlink="http://www.w3.org/1999/xlink" width="500" zoomAndPan="magnify" viewBox="0 0 375 374.999991" height="500" preserveAspectRatio="xMidYMid meet" version="1.0"><defs><g/></defs><g fill="#ffffff" fill-opacity="1"><g transform="translate(98.607156, 202.874987)"><g><path d="M 0.46875 -38.59375 L 0.46875 -48.25 L 34.390625 -48.25 L 34.390625 -38.59375 L 22.921875 -38.59375 L 22.921875 0 L 11.9375 0 L 11.9375 -38.59375 Z M 0.46875 -38.59375 "/></g></g></g><g fill="#ffffff" fill-opacity="1"><g transform="translate(129.364756, 202.874987)"><g><path d="M 33.859375 -13.5625 L 12.109375 -13.5625 C 12.109375 -11.457031 12.789062 -9.898438 14.15625 -8.890625 C 15.519531 -7.878906 17 -7.375 18.59375 -7.375 C 20.269531 -7.375 21.59375 -7.597656 22.5625 -8.046875 C 23.539062 -8.492188 24.65625 -9.378906 25.90625 -10.703125 L 33.390625 -6.953125 C 30.273438 -1.734375 25.09375 0.875 17.84375 0.875 C 13.3125 0.875 9.425781 -0.671875 6.1875 -3.765625 C 2.957031 -6.867188 1.34375 -10.601562 1.34375 -14.96875 C 1.34375 -19.332031 2.957031 -23.070312 6.1875 -26.1875 C 9.425781 -29.3125 13.3125 -30.875 17.84375 -30.875 C 22.59375 -30.875 26.457031 -29.5 29.4375 -26.75 C 32.425781 -24.007812 33.921875 -20.082031 33.921875 -14.96875 C 33.921875 -14.269531 33.898438 -13.800781 33.859375 -13.5625 Z M 12.40625 -19.296875 L 23.796875 -19.296875 C 23.566406 -20.859375 22.953125 -22.054688 21.953125 -22.890625 C 20.960938 -23.734375 19.6875 -24.15625 18.125 -24.15625 C 16.414062 -24.15625 15.050781 -23.707031 14.03125 -22.8125 C 13.019531 -21.914062 12.476562 -20.742188 12.40625 -19.296875 Z M 12.40625 -19.296875 "/></g></g></g><g fill="#ffffff" fill-opacity="1"><g transform="translate(160.531699, 202.874987)"><g><path d="M 3.515625 0 L 3.515625 -50.296875 L 13.859375 -50.296875 L 13.859375 0 Z M 3.515625 0 "/></g></g></g><g fill="#ffffff" fill-opacity="1"><g transform="translate(173.80479, 202.874987)"><g><path d="M 33.859375 -13.5625 L 12.109375 -13.5625 C 12.109375 -11.457031 12.789062 -9.898438 14.15625 -8.890625 C 15.519531 -7.878906 17 -7.375 18.59375 -7.375 C 20.269531 -7.375 21.59375 -7.597656 22.5625 -8.046875 C 23.539062 -8.492188 24.65625 -9.378906 25.90625 -10.703125 L 33.390625 -6.953125 C 30.273438 -1.734375 25.09375 0.875 17.84375 0.875 C 13.3125 0.875 9.425781 -0.671875 6.1875 -3.765625 C 2.957031 -6.867188 1.34375 -10.601562 1.34375 -14.96875 C 1.34375 -19.332031 2.957031 -23.070312 6.1875 -26.1875 C 9.425781 -29.3125 13.3125 -30.875 17.84375 -30.875 C 22.59375 -30.875 26.457031 -29.5 29.4375 -26.75 C 32.425781 -24.007812 33.921875 -20.082031 33.921875 -14.96875 C 33.921875 -14.269531 33.898438 -13.800781 33.859375 -13.5625 Z M 12.40625 -19.296875 L 23.796875 -19.296875 C 23.566406 -20.859375 22.953125 -22.054688 21.953125 -22.890625 C 20.960938 -23.734375 19.6875 -24.15625 18.125 -24.15625 C 16.414062 -24.15625 15.050781 -23.707031 14.03125 -22.8125 C 13.019531 -21.914062 12.476562 -20.742188 12.40625 -19.296875 Z M 12.40625 -19.296875 "/></g></g></g><g fill="#ffffff" fill-opacity="1"><g transform="translate(204.971731, 202.874987)"><g><path d="M 5.265625 -30 L 5.265625 -41.171875 L 15.609375 -41.171875 L 15.609375 -30 L 21.9375 -30 L 21.9375 -22.109375 L 15.609375 -22.109375 L 15.609375 -12.578125 C 15.609375 -9.804688 16.390625 -8.421875 17.953125 -8.421875 C 18.347656 -8.421875 18.757812 -8.5 19.1875 -8.65625 C 19.613281 -8.8125 19.941406 -8.96875 20.171875 -9.125 L 20.53125 -9.359375 L 23.09375 -1 C 20.875 0.25 18.34375 0.875 15.5 0.875 C 13.550781 0.875 11.875 0.535156 10.46875 -0.140625 C 9.0625 -0.828125 8 -1.742188 7.28125 -2.890625 C 6.5625 -4.046875 6.046875 -5.253906 5.734375 -6.515625 C 5.421875 -7.785156 5.265625 -9.140625 5.265625 -10.578125 L 5.265625 -22.109375 L 0.9375 -22.109375 L 0.9375 -30 Z M 5.265625 -30 "/></g></g></g><g fill="#ffffff" fill-opacity="1"><g transform="translate(223.975525, 202.874987)"><g><path d="M 5.546875 -3.71875 C 2.742188 -6.78125 1.34375 -10.53125 1.34375 -14.96875 C 1.34375 -19.414062 2.742188 -23.175781 5.546875 -26.25 C 8.359375 -29.332031 11.929688 -30.875 16.265625 -30.875 C 20.234375 -30.875 23.503906 -29.628906 26.078125 -27.140625 L 26.078125 -30 L 36.4375 -30 L 36.4375 0 L 26.203125 0 L 26.203125 -3.390625 L 26.078125 -3.390625 C 23.503906 -0.546875 20.234375 0.875 16.265625 0.875 C 11.929688 0.875 8.359375 -0.65625 5.546875 -3.71875 Z M 14.359375 -20.0625 C 13.015625 -18.738281 12.34375 -17.039062 12.34375 -14.96875 C 12.34375 -12.90625 12.984375 -11.21875 14.265625 -9.90625 C 15.554688 -8.601562 17.253906 -7.953125 19.359375 -7.953125 C 21.390625 -7.953125 23.054688 -8.613281 24.359375 -9.9375 C 25.660156 -11.269531 26.3125 -12.945312 26.3125 -14.96875 C 26.3125 -17.039062 25.640625 -18.738281 24.296875 -20.0625 C 22.953125 -21.382812 21.304688 -22.046875 19.359375 -22.046875 C 17.367188 -22.046875 15.703125 -21.382812 14.359375 -20.0625 Z M 14.359375 -20.0625 "/></g></g></g><g fill="#ffffff" fill-opacity="1"><g transform="translate(259.820593, 202.874987)"><g><path d="M 10.171875 -12.515625 C 12.046875 -12.515625 13.632812 -11.859375 14.9375 -10.546875 C 16.25 -9.242188 16.90625 -7.660156 16.90625 -5.796875 C 16.90625 -3.960938 16.25 -2.390625 14.9375 -1.078125 C 13.632812 0.222656 12.046875 0.875 10.171875 0.875 C 8.335938 0.875 6.769531 0.222656 5.46875 -1.078125 C 4.164062 -2.390625 3.515625 -3.960938 3.515625 -5.796875 C 3.515625 -7.660156 4.164062 -9.242188 5.46875 -10.546875 C 6.769531 -11.859375 8.335938 -12.515625 10.171875 -12.515625 Z M 10.171875 -12.515625 "/></g></g></g><g fill="#84cc16" fill-opacity="1"><g transform="translate(163.448592, 217.265743)"><g><path d="M 1.09375 -9.171875 L 5.25 -9.171875 C 6.25 -9.171875 7.128906 -8.976562 7.890625 -8.59375 C 8.648438 -8.21875 9.242188 -7.679688 9.671875 -6.984375 C 10.097656 -6.296875 10.3125 -5.492188 10.3125 -4.578125 C 10.3125 -3.660156 10.097656 -2.859375 9.671875 -2.171875 C 9.242188 -1.484375 8.648438 -0.945312 7.890625 -0.5625 C 7.128906 -0.1875 6.25 0 5.25 0 L 1.09375 0 Z M 5.140625 -1.734375 C 6.054688 -1.734375 6.785156 -1.988281 7.328125 -2.5 C 7.878906 -3.007812 8.15625 -3.703125 8.15625 -4.578125 C 8.15625 -5.453125 7.878906 -6.144531 7.328125 -6.65625 C 6.785156 -7.164062 6.054688 -7.421875 5.140625 -7.421875 L 3.203125 -7.421875 L 3.203125 -1.734375 Z M 5.140625 -1.734375 "/></g></g></g><g fill="#84cc16" fill-opacity="1"><g transform="translate(173.343842, 217.265743)"><g><path d="M 8.1875 -1.703125 L 8.1875 0 L 1.09375 0 L 1.09375 -9.171875 L 8.015625 -9.171875 L 8.015625 -7.46875 L 3.1875 -7.46875 L 3.1875 -5.46875 L 7.453125 -5.46875 L 7.453125 -3.828125 L 3.1875 -3.828125 L 3.1875 -1.703125 Z M 8.1875 -1.703125 "/></g></g></g><g fill="#84cc16" fill-opacity="1"><g transform="translate(181.210158, 217.265743)"><g><path d="M 9.90625 -9.171875 L 5.9375 0 L 3.84375 0 L -0.125 -9.171875 L 2.171875 -9.171875 L 4.96875 -2.625 L 7.796875 -9.171875 Z M 9.90625 -9.171875 "/></g></g></g><g fill="#84cc16" fill-opacity="1"><g transform="translate(190.058215, 217.265743)"><g><path d="M 8.1875 -1.703125 L 8.1875 0 L 1.09375 0 L 1.09375 -9.171875 L 8.015625 -9.171875 L 8.015625 -7.46875 L 3.1875 -7.46875 L 3.1875 -5.46875 L 7.453125 -5.46875 L 7.453125 -3.828125 L 3.1875 -3.828125 L 3.1875 -1.703125 Z M 8.1875 -1.703125 "/></g></g></g><g fill="#84cc16" fill-opacity="1"><g transform="translate(197.924532, 217.265743)"><g><path d="M 1.09375 -9.171875 L 3.203125 -9.171875 L 3.203125 -1.734375 L 7.796875 -1.734375 L 7.796875 0 L 1.09375 0 Z M 1.09375 -9.171875 "/></g></g></g><g fill="#84cc16" fill-opacity="1"><g transform="translate(204.91383, 217.265743)"><g><path d="M 5.53125 0.15625 C 4.570312 0.15625 3.710938 -0.046875 2.953125 -0.453125 C 2.191406 -0.867188 1.59375 -1.4375 1.15625 -2.15625 C 0.726562 -2.875 0.515625 -3.679688 0.515625 -4.578125 C 0.515625 -5.484375 0.726562 -6.296875 1.15625 -7.015625 C 1.59375 -7.734375 2.191406 -8.296875 2.953125 -8.703125 C 3.710938 -9.117188 4.570312 -9.328125 5.53125 -9.328125 C 6.476562 -9.328125 7.332031 -9.117188 8.09375 -8.703125 C 8.851562 -8.296875 9.453125 -7.734375 9.890625 -7.015625 C 10.328125 -6.296875 10.546875 -5.484375 10.546875 -4.578125 C 10.546875 -3.679688 10.328125 -2.875 9.890625 -2.15625 C 9.453125 -1.4375 8.851562 -0.867188 8.09375 -0.453125 C 7.332031 -0.046875 6.476562 0.15625 5.53125 0.15625 Z M 5.53125 -1.65625 C 6.070312 -1.65625 6.554688 -1.773438 6.984375 -2.015625 C 7.421875 -2.265625 7.765625 -2.613281 8.015625 -3.0625 C 8.265625 -3.507812 8.390625 -4.015625 8.390625 -4.578125 C 8.390625 -5.148438 8.265625 -5.65625 8.015625 -6.09375 C 7.765625 -6.539062 7.421875 -6.890625 6.984375 -7.140625 C 6.554688 -7.390625 6.070312 -7.515625 5.53125 -7.515625 C 4.988281 -7.515625 4.5 -7.390625 4.0625 -7.140625 C 3.625 -6.890625 3.28125 -6.539062 3.03125 -6.09375 C 2.78125 -5.65625 2.65625 -5.148438 2.65625 -4.578125 C 2.65625 -4.015625 2.78125 -3.507812 3.03125 -3.0625 C 3.28125 -2.613281 3.625 -2.265625 4.0625 -2.015625 C 4.5 -1.773438 4.988281 -1.65625 5.53125 -1.65625 Z M 5.53125 -1.65625 "/></g></g></g><g fill="#84cc16" fill-opacity="1"><g transform="translate(215.0447, 217.265743)"><g><path d="M 5.046875 -9.171875 C 5.859375 -9.171875 6.5625 -9.035156 7.15625 -8.765625 C 7.757812 -8.492188 8.222656 -8.109375 8.546875 -7.609375 C 8.867188 -7.109375 9.03125 -6.519531 9.03125 -5.84375 C 9.03125 -5.164062 8.867188 -4.578125 8.546875 -4.078125 C 8.222656 -3.578125 7.757812 -3.191406 7.15625 -2.921875 C 6.5625 -2.660156 5.859375 -2.53125 5.046875 -2.53125 L 3.203125 -2.53125 L 3.203125 0 L 1.09375 0 L 1.09375 -9.171875 Z M 4.9375 -4.25 C 5.570312 -4.25 6.054688 -4.382812 6.390625 -4.65625 C 6.722656 -4.9375 6.890625 -5.332031 6.890625 -5.84375 C 6.890625 -6.351562 6.722656 -6.742188 6.390625 -7.015625 C 6.054688 -7.296875 5.570312 -7.4375 4.9375 -7.4375 L 3.203125 -7.4375 L 3.203125 -4.25 Z M 4.9375 -4.25 "/></g></g></g><g fill="#84cc16" fill-opacity="1"><g transform="translate(223.709502, 217.265743)"><g><path d="M 9.421875 0 L 9.421875 -5.5 L 6.71875 -0.96875 L 5.765625 -0.96875 L 3.078125 -5.375 L 3.078125 0 L 1.09375 0 L 1.09375 -9.171875 L 2.84375 -9.171875 L 6.265625 -3.46875 L 9.65625 -9.171875 L 11.390625 -9.171875 L 11.421875 0 Z M 9.421875 0 "/></g></g></g><g fill="#84cc16" fill-opacity="1"><g transform="translate(235.293348, 217.265743)"><g><path d="M 8.1875 -1.703125 L 8.1875 0 L 1.09375 0 L 1.09375 -9.171875 L 8.015625 -9.171875 L 8.015625 -7.46875 L 3.1875 -7.46875 L 3.1875 -5.46875 L 7.453125 -5.46875 L 7.453125 -3.828125 L 3.1875 -3.828125 L 3.1875 -1.703125 Z M 8.1875 -1.703125 "/></g></g></g><g fill="#84cc16" fill-opacity="1"><g transform="translate(243.159662, 217.265743)"><g><path d="M 9.5 -9.171875 L 9.5 0 L 7.75 0 L 3.1875 -5.5625 L 3.1875 0 L 1.09375 0 L 1.09375 -9.171875 L 2.84375 -9.171875 L 7.390625 -3.59375 L 7.390625 -9.171875 Z M 9.5 -9.171875 "/></g></g></g><g fill="#84cc16" fill-opacity="1"><g transform="translate(252.819299, 217.265743)"><g><path d="M 2.984375 -7.4375 L 0.046875 -7.4375 L 0.046875 -9.171875 L 8.046875 -9.171875 L 8.046875 -7.4375 L 5.109375 -7.4375 L 5.109375 0 L 2.984375 0 Z M 2.984375 -7.4375 "/></g></g></g></svg>